<svg id="Layer_1" xmlns="http://www.w3.org/2000/svg" width="146.34" height="146.08" viewBox="0 0 146.34 146.08"><style>.st0{fill:gray}.st1{fill:#bababa}.st2{fill:#c6c6c6}.st3{fill:#9b9b9b}.st4{fill:#dbdbdb}</style><path class="st2" d="M9.56 146.08c-5.26 0-9.56-4.3-9.56-9.56V27.47h146.34v109.05c0 5.26-4.3 9.56-9.56 9.56H9.56z"/><path class="st0" d="M36.97 46.93c0-1.31-1.07-2.39-2.38-2.39H20.31c-1.32 0-2.39 1.08-2.39 2.39v11.35c0 1.32 1.08 2.39 2.39 2.39h14.27c1.31 0 2.38-1.07 2.38-2.39V46.93zm91.45 0c0-1.31-1.08-2.39-2.39-2.39h-14.27c-1.31 0-2.38 1.08-2.38 2.39v11.35c0 1.32 1.07 2.39 2.38 2.39h14.27a2.39 2.39 0 0 0 2.39-2.39V46.93zm-30.48 0c0-1.31-1.08-2.39-2.39-2.39H81.27c-1.31 0-2.38 1.08-2.38 2.39v11.35c0 1.32 1.07 2.39 2.38 2.39h14.28c1.31 0 2.39-1.07 2.39-2.39V46.93zm-30.49 0c0-1.31-1.08-2.39-2.39-2.39H50.79c-1.31 0-2.39 1.08-2.39 2.39v11.35c0 1.32 1.08 2.39 2.39 2.39h14.27c1.31 0 2.39-1.07 2.39-2.39V46.93zM36.97 79.18c0-1.31-1.07-2.39-2.38-2.39H20.31c-1.32 0-2.39 1.08-2.39 2.39v11.35c0 1.31 1.08 2.39 2.39 2.39h14.27c1.31 0 2.38-1.08 2.38-2.39V79.18zm91.45 0c0-1.31-1.08-2.39-2.39-2.39h-14.27c-1.31 0-2.38 1.08-2.38 2.39v11.35c0 1.31 1.07 2.39 2.38 2.39h14.27c1.32 0 2.39-1.08 2.39-2.39V79.18zm-30.48 0c0-1.31-1.08-2.39-2.39-2.39H81.27c-1.31 0-2.38 1.08-2.38 2.39v11.35c0 1.31 1.07 2.39 2.38 2.39h14.28c1.31 0 2.39-1.08 2.39-2.39V79.18zm-30.49 0c0-1.31-1.08-2.39-2.39-2.39H50.79c-1.31 0-2.39 1.08-2.39 2.39v11.35c0 1.31 1.08 2.39 2.39 2.39h14.27c1.31 0 2.39-1.08 2.39-2.39V79.18zm-30.48 32.26c0-1.32-1.07-2.39-2.38-2.39H20.31a2.39 2.39 0 0 0-2.39 2.39v11.35c0 1.31 1.08 2.39 2.39 2.39h14.27c1.31 0 2.38-1.08 2.38-2.39v-11.35zm91.45 0c0-1.32-1.08-2.39-2.39-2.39h-14.27c-1.31 0-2.38 1.07-2.38 2.39v11.35c0 1.31 1.07 2.39 2.38 2.39h14.27c1.32 0 2.39-1.08 2.39-2.39v-11.35zm-30.48 0c0-1.32-1.08-2.39-2.39-2.39H81.27c-1.31 0-2.38 1.07-2.38 2.39v11.35c0 1.31 1.07 2.39 2.38 2.39h14.28c1.31 0 2.39-1.08 2.39-2.39v-11.35zm-30.49 0c0-1.32-1.08-2.39-2.39-2.39H50.79c-1.31 0-2.39 1.07-2.39 2.39v11.35c0 1.31 1.08 2.39 2.39 2.39h14.27c1.31 0 2.39-1.08 2.39-2.39v-11.35z"/><path class="st3" d="M136.78 0h-23.29v14.67H92.58V0H53.76v14.67h-20.9V0H9.56C4.3 0 0 4.3 0 9.56V29.6h146.34V9.56c0-5.26-4.3-9.56-9.56-9.56z"/></svg>