<svg id="Layer_1" xmlns="http://www.w3.org/2000/svg" width="146.34" height="149.33" viewBox="0 0 146.34 149.33"><style>.st0{fill:gray}.st1{fill:#bababa}.st2{fill:#c6c6c6}.st3{fill:#9b9b9b}.st4{fill:#dbdbdb}</style><path class="st0" d="M38.31 16.6V8.63c0-1.31-1.07-2.39-2.38-2.39H13.82c-1.31 0-2.38 1.08-2.38 2.39V29.1l26.87-12.5z"/><path class="st2" d="M9.56 149.33c-5.26 0-9.56-4.3-9.56-9.56V50.09h146.34v89.68c0 5.26-4.3 9.56-9.56 9.56H9.56z"/><path class="st3" d="M0 53.76V33.45L71.68 0l74.66 33.45v20.31z"/><path class="st0" d="M60 80.04c0-1.31-1.08-2.39-2.39-2.39H26.28c-1.31 0-2.39 1.08-2.39 2.39v43.01c0 1.31 1.08 2.39 2.39 2.39h31.33c1.31 0 2.39-1.08 2.39-2.39V80.04zm59.73 0c0-1.31-1.07-2.39-2.39-2.39H86.01c-1.32 0-2.39 1.08-2.39 2.39v43.01c0 1.31 1.07 2.39 2.39 2.39h31.33c1.32 0 2.39-1.08 2.39-2.39V80.04z"/></svg>