<svg id="Layer_1" xmlns="http://www.w3.org/2000/svg" width="164.63" height="147.16" viewBox="0 0 164.63 147.16"><style>.st0{fill:gray}.st1{fill:#bababa}.st2{fill:#c6c6c6}.st3{fill:#9b9b9b}.st4{fill:#dbdbdb}</style><path class="st1" d="M153.57 76.39l-16.04-52.75-5.37-2.36-83.6-10.13-5.62 1.3L10 55.52l2.94 6.5 16.89 61.25 5.54 11.15 78.54 2.53 2.76-3.81 36.79-46.6.11-10.15zM96.34 96.28l8.47 25.43L69.2 94.57l27.14 1.71zm-31.08-8.72l21.82-25.45 7.26 27.27-29.08-1.82zM93.83 61.2l52.63 19.74-45.19 8.22-7.44-27.96zm51.77 12.2l-50.66-19-4.26-2.09 41.24-23.87L145.6 73.4zm-24.28-46.63L84.17 48.28l-29.6-29.6 66.75 8.09zM81.23 54.89l.37 3.24-20.97 24.44-7.43-55.71 28.03 28.03zM45.5 20.21l8.64 64.81-36.7-28.07-.02-.01L45.5 20.21zm-23.68 48.6l29.35 22.45-16.38 24.57-12.97-47.02zm15.35 55.64l20.24-30.37 46.99 35.8-66.31-2.13-.92-3.3zm76.29 1.85l-10.21-30.64 40.15-7.3-29.94 37.94z"/><circle class="st0" cx="134.29" cy="24.62" r="13.94"/><path class="st0" d="M46.89 0c8.7 0 15.76 7.06 15.76 15.76 0 8.71-7.06 15.76-15.76 15.76s-15.76-7.05-15.76-15.76C31.14 7.06 38.19 0 46.89 0z"/><circle class="st3" cx="13.94" cy="58.82" r="13.94"/><path class="st3" d="M153.29 70.29c6.26 0 11.33 5.07 11.33 11.33s-5.08 11.33-11.33 11.33c-6.26 0-11.34-5.07-11.34-11.33s5.08-11.33 11.34-11.33z"/><path class="st0" d="M88.69 41.1c7.7 0 13.94 6.24 13.94 13.94 0 7.7-6.24 13.94-13.94 13.94s-13.94-6.24-13.94-13.94c0-7.7 6.24-13.94 13.94-13.94zM55.74 72.75c9.8 0 17.75 7.95 17.75 17.75s-7.95 17.74-17.75 17.74-17.75-7.94-17.75-17.74c.01-9.8 7.95-17.75 17.75-17.75z"/><path class="st3" d="M98.81 82.94c5.58 0 10.1 4.52 10.1 10.1s-4.52 10.1-10.1 10.1c-5.57 0-10.1-4.52-10.1-10.1s4.52-10.1 10.1-10.1z"/><path class="st0" d="M110.96 115.84c8.66 0 15.67 7.01 15.67 15.67 0 8.65-7.01 15.66-15.67 15.66-8.65 0-15.66-7.01-15.66-15.66 0-8.66 7.01-15.67 15.66-15.67z"/><path class="st3" d="M30.41 115.83c7 0 12.67 5.67 12.67 12.67s-5.67 12.67-12.67 12.67-12.67-5.67-12.67-12.67 5.67-12.67 12.67-12.67z"/></svg>