<svg id="Layer_1" xmlns="http://www.w3.org/2000/svg" width="146.34" height="184.43" viewBox="0 0 146.34 184.43"><style>.st0{fill:gray}.st1{fill:#bababa}.st2{fill:#c6c6c6}.st3{fill:#9b9b9b}.st4{fill:#dbdbdb}</style><path class="st0" d="M122.17 72.35l-5.01-70.33C117.06.71 115.91 0 114.6 0H92.5c-1.31 0-2.47.71-2.57 2.01l-4.89 63.7 37.13 6.64zm-48.92-5.84l-3.85-46.4c-.11-1.32-1.27-2.11-2.59-2.11h-22.1c-1.31 0-2.46.8-2.54 2.11l-2.63 40.34 33.71 6.06z"/><path class="st2" d="M9.56 184.43c-5.26 0-9.56-4.3-9.56-9.56V89.56h146.34v85.31c0 5.26-4.3 9.56-9.56 9.56H9.56z"/><path class="st0" d="M36.97 112.16c0-1.31-1.07-2.39-2.38-2.39H20.31c-1.32 0-2.39 1.08-2.39 2.39v16.13c0 1.32 1.08 2.39 2.39 2.39h14.27c1.31 0 2.38-1.07 2.38-2.39v-16.13zm91.45 0c0-1.31-1.08-2.39-2.39-2.39h-14.27c-1.31 0-2.38 1.08-2.38 2.39v16.13c0 1.32 1.07 2.39 2.38 2.39h14.27a2.39 2.39 0 0 0 2.39-2.39v-16.13zm-30.48 0c0-1.31-1.08-2.39-2.39-2.39H81.27c-1.31 0-2.38 1.08-2.38 2.39v16.13c0 1.32 1.07 2.39 2.38 2.39h14.28c1.31 0 2.39-1.07 2.39-2.39v-16.13zm-30.49 0c0-1.31-1.08-2.39-2.39-2.39H50.79c-1.32 0-2.39 1.08-2.39 2.39v16.13a2.39 2.39 0 0 0 2.39 2.39h14.27c1.31 0 2.39-1.07 2.39-2.39v-16.13zm-30.48 32.85c0-1.31-1.07-2.39-2.38-2.39H20.31c-1.32 0-2.39 1.08-2.39 2.39v16.13c0 1.32 1.08 2.39 2.39 2.39h14.27c1.31 0 2.38-1.07 2.38-2.39v-16.13zm91.45 0c0-1.31-1.08-2.39-2.39-2.39h-14.27c-1.31 0-2.38 1.08-2.38 2.39v16.13c0 1.32 1.07 2.39 2.38 2.39h14.27a2.39 2.39 0 0 0 2.39-2.39v-16.13zm-30.48 0c0-1.31-1.08-2.39-2.39-2.39H81.27c-1.31 0-2.38 1.08-2.38 2.39v16.13c0 1.32 1.07 2.39 2.38 2.39h14.28c1.31 0 2.39-1.07 2.39-2.39v-16.13zm-30.49 0c0-1.31-1.08-2.39-2.39-2.39H50.79c-1.32 0-2.39 1.08-2.39 2.39v16.13a2.39 2.39 0 0 0 2.39 2.39h14.27c1.31 0 2.39-1.07 2.39-2.39v-16.13z"/><path class="st3" d="M0 91.85v-44.8l146.34 26.88v17.92z"/></svg>