<svg id="Layer_1" xmlns="http://www.w3.org/2000/svg" width="151.1" height="169.4" viewBox="0 0 151.1 169.4"><style>.st0{fill:gray}.st1{fill:#c6c6c6}.st2{fill:#9b9b9b}.st3{fill:#bababa}.st4{fill:#dbdbdb}.st5{fill-rule:evenodd;clip-rule:evenodd;fill:#c6c6c6}</style><path class="st5" d="M16.5 23.5C7.4 23.5 0 31 0 40v112.9c0 9.1 7.4 16.5 16.5 16.5h118.1c9.1 0 16.5-7.4 16.5-16.5V40c0-9.1-7.4-16.5-16.5-16.5l-14.2 35.3H30.7L16.5 23.5z"/><path class="st0" d="M75.6 72.9l10.9 30.6h29.2l-23.8 17.9 8.5 31.5-24.8-18.8-24.9 18.8 8.6-31.5-23.9-17.9h29.3z"/><path class="st2" d="M111 47.1l10.6-23.6H95.9L87.4 0H63.7l-8.5 23.5H29.5l10.6 23.6z"/></svg>