<svg id="Layer_1" xmlns="http://www.w3.org/2000/svg" width="146.34" height="146.34" viewBox="0 0 146.34 146.34"><style>.st0{fill:gray}.st1{fill:#bababa}.st2{fill:#c6c6c6}.st3{fill:#9b9b9b}.st4{fill:#dbdbdb}</style><path class="st2" d="M0 98.29V9.56C0 4.3 4.3 0 9.56 0h127.22c5.26 0 9.56 4.3 9.56 9.56v126.97c0 5.26-4.3 9.56-9.56 9.56H74.66L0 98.29z"/><path class="st0" d="M66.42 109.91c-.47.35-.94.58-1.53.58-.59 0-1.06-.23-1.53-.58L27.39 73.93c-.83-.82-.83-2.23 0-3.05L42.2 56.06c.83-.82 2.24-.82 3.06 0L64.9 75.81l45.03-45.15c.82-.82 2.23-.82 3.05 0l14.81 14.81c.83.82.83 2.23 0 3.05l-61.37 61.39z"/><path class="st4" d="M74.66 146.34L0 98.29l50.77-11.94z"/></svg>